<?xml version="1.0" standalone="no"?><!DOCTYPE svg PUBLIC "-//W3C//DTD SVG 1.1//EN" "http://www.w3.org/Graphics/SVG/1.1/DTD/svg11.dtd"><svg t="1677503975738" class="icon" viewBox="0 0 1024 1024" version="1.1" xmlns="http://www.w3.org/2000/svg" p-id="2780" xmlns:xlink="http://www.w3.org/1999/xlink" width="128" height="128"><path d="M653.3 409.5c27.4 5.6 54.2-4.2 69.8-14 14.7-9.2 30.1-23.6 40.5-42.8 14.3-25.3 21.1-61.1 10.8-95.5-5.8-19-14.7-34.3-25.2-48.6 14.2-21 29.9-39.4 45-59 3.7-4.8 12.3-14.3 14.4-17.6 2-4.5 2.4-13.8 0.5-16.2-4.7-1.8-8.6-0.6-28.4 3.2-28.5 6.9-76.4 20.6-75.2 20.3-20.5-3.9-49-17.8-69.8-14.9-17.6 1.5-30.5 5.9-42.8 11.3-40.7 17.6-88.2 68.2-69.4 132 16.1 57 75.8 128.6 129.8 141.8m226.1 323c-24 5.1-44.4 16.4-62.6 28.8-16.5-24.8-32.3-49.7-47.7-74.8-11.9-15.4-47.8-38.8-71.2-49.5 0.2-1.3 0.8-3.7 2.1-6.4 2.8-5.9 7.7-13.8 10.9-16.1 3.2-2.3 8.9-2.7 15.6-3.5 6.8-0.7 14.6-1.8 21.8-3.7 22.8-4.8 36.1-11.2 50.9-20.3 26.1-15.1 48.7-31.3 68.2-55 8.5-9.7 16.3-19 22.9-28.7 7.6-11.8 13.3-24.5 18.8-38.8 7.5-19.4 11.4-41.8 14.4-64.4 2.9-16.5 3.3-39.3 3-61.2 0.2-5.5 0-22.8-1.5-42.2-1.6-21.5-4.5-46.6-5.6-59.7-4.9-22.1-21.3-43.7-55-43.2-4.3 0.3-9 1.8-14 3.6-9.3 3.7-16.7 9-23.4 18-28.9 40.4 12.7 97.9 3.2 145.9-2.5 12.6-4.7 23.8-9.4 34.4-8.6 19.2-21.5 36.5-37.8 49.3-10.2 8-21.7 14.1-34.3 19-25.6 9.7-52.1 11.8-75.3 8.3-28.7-4.8-52.9-18.8-74.3-32.2-42.6-26.7-78.7-57.9-123.9-81.5-12.7-6.4-43.9-20.5-65.3-16.7-24.1 4.3-44.9 9.2-65.8 16.7-20.7 7.4-39.5 16.4-55.4 28.8-12.3 9.6-20.5 21.2-23.4 34.6-5.2 23.8 5 50.7 31 57.8 14.4 4.4 31.3-1.3 41.9-5.4 20.1-7.9 34.7-14.6 61.7-17.6 11.5-0.1 24.1 2.3 32.9 4.5 26.1 6.5 52.7 12.9 78.8 19.4 4.7 45-4.6 81.3-22.4 117-20 37.3-42.2 59.2-75.3 96.1-13.8 15.6-47.9 53.2-68.9 59-21.6 4-42.5-7.1-52.2-14.9-32.8-25.1-42.4-63.3-51.8-110.3-1.9-11.8-3.7-24-4.1-37.4C182.3 559.3 127.6 527.9 73 497c-3.1 10.5-5.4 19.3-7.6 32.4-3.4 25.5-0.9 44.5 6.7 58.5 9.8 17.9 27 27.8 45 36 10.2 4.4 23.7 10.4 37.8 12.6-0.3 3.5-0.9 42.2-0.9 42.2s0.6 33.7 2.3 47.4c7.2 51.2 13.8 85.4 36.9 114.9 7.2 9.1 18.7 17.2 27.9 24.3 15.9 13.2 32.4 24.5 51.8 32.9 17.3 7.3 35.4 11 53.6 10.8 19.8-0.8 43-6 60.8-12.2 46.4-16.2 89.9-37.4 128.8-61.3 14.1-8.3 26.7-16.1 39.6-25.2 5.7-3.8 9.9-7.1 15.3-10.8 10.1-1.2 19-2.6 29.7-3.6 45.4-3.7 86.8-0.8 110.8 22.1 18.4 15.6 31.7 40.5 39.6 65.8 4.7 16.7 5.9 24.8 5.9 24.8s133.6-51.6 200.4-77.5c10.2-60.9-11.9-112.1-78-98.6M474.5 504.6c-29.7-5.1-88.7-15.3-88.7-15.3s-21.5 12.8-42.3 19.4c-34.8 10.9-55.6-0.5-77.5-18.9-10.1-10.4-14-15.8-14-15.8s-15 41-22.5 61.7c71.9 33.6 143.4 67.3 215.3 100.9 9.7-44.2 19.9-87.9 29.7-132" fill="#FF6634" p-id="2781"></path></svg>